<svg width="40" height="40" viewBox="0 0 40 40" fill="none" xmlns="http://www.w3.org/2000/svg">
<mask id="mask0_3_5" style="mask-type:luminance" maskUnits="userSpaceOnUse" x="9" y="8" width="24" height="24">
<path d="M33 8H9V32H33V8Z" fill="white"/>
</mask>
<g mask="url(#mask0_3_5)">
<path d="M29.7371 24.9848C29.7371 26.4848 29.3223 27.6932 28.4938 28.5152C27.6629 29.3384 26.5121 29.7752 25.1292 29.7752H15.728C14.3451 29.7752 13.1931 29.3384 12.3634 28.5152C11.5349 27.6452 11.1177 26.4356 11.1177 24.9356V15.0152C11.1177 13.5632 14.848 8.8712 15.6766 8C11.6709 8.0024 9 10.808 9 15.0152V24.9344C9 27.0152 9.64457 28.8068 10.9349 30.1124C12.1794 31.37 13.8377 32 15.728 32H25.1292C27.1098 32 28.7691 31.322 29.9668 30.1124C31.2115 28.8548 31.8572 27.0644 31.8572 24.9836V15.0152C31.8572 12.9836 31.2115 11.2412 30.0138 9.9836C28.8159 8.6768 27.1086 8 25.1749 8H15.68L12.3634 11.4848C13.1474 10.6616 14.3451 10.226 15.728 10.226H25.2206C26.6035 10.226 27.7555 10.6616 28.5852 11.534C29.3692 12.404 29.8285 13.6136 29.8285 15.0164V24.9848H29.7371ZM26.4652 15.1604C26.6438 15.1659 26.8217 15.1337 26.9883 15.0657C27.1549 14.9977 27.3068 14.8953 27.435 14.7645C27.5633 14.6338 27.6651 14.4774 27.7348 14.3045C27.8044 14.1316 27.8402 13.9459 27.8402 13.7582C27.8402 13.5705 27.8044 13.3848 27.7348 13.2119C27.6651 13.0391 27.5633 12.8826 27.435 12.7519C27.3068 12.6211 27.1549 12.5187 26.9883 12.4507C26.8217 12.3827 26.6438 12.3505 26.4652 12.356C26.1178 12.3667 25.7879 12.5191 25.5458 12.7809C25.3037 13.0427 25.1682 13.3933 25.1682 13.7582C25.1682 14.1231 25.3037 14.4737 25.5458 14.7355C25.7879 14.9973 26.1178 15.1497 26.4652 15.1604ZM20.4286 23.9684C19.4276 23.9637 18.4689 23.5441 17.7611 22.8008C17.0533 22.0576 16.6537 21.0511 16.6491 20C16.6537 18.949 17.0533 17.9424 17.7611 17.1992C18.4689 16.456 19.4276 16.0363 20.4286 16.0316C21.4295 16.0363 22.3883 16.456 23.0961 17.1992C23.8038 17.9424 24.2035 18.949 24.2081 20C24.2031 21.0508 23.8034 22.0572 23.0956 22.8001C22.3878 23.543 21.4293 23.9625 20.4286 23.9672V23.9684ZM20.4286 13.8068C17.2034 13.8068 14.5303 16.5644 14.5303 20C14.5282 20.814 14.6793 21.6202 14.975 22.3726C15.2706 23.125 15.705 23.8087 16.2531 24.3842C16.8013 24.9597 17.4523 25.4158 18.1689 25.7263C18.8855 26.0367 19.6534 26.1954 20.4286 26.1932C23.7006 26.1932 26.3258 23.3864 26.3258 20.0012C26.3258 16.6124 23.6538 13.8068 20.4286 13.8068Z" fill="black"/>
</g>
</svg>
