<svg width="26" height="26" viewBox="0 0 26 26" fill="none" xmlns="http://www.w3.org/2000/svg">
<g clip-path="url(#clip0_5267_940)">
<path d="M26 3.07694C25.0454 3.60194 24.0148 3.95174 22.9385 4.10794C24.0402 3.29564 24.8829 2.00844 25.2841 0.477441C24.2534 1.22724 23.111 1.77714 21.8976 2.07084C20.9226 0.795941 19.5365 0.00244141 18.0033 0.00244141C15.0587 0.00244141 12.6725 2.93944 12.6725 6.56364C12.6725 7.07604 12.7182 7.57594 12.8095 8.05714C8.37716 7.78214 4.44758 5.17014 1.81752 1.19594C1.36057 2.16464 1.09659 3.29564 1.09659 4.49534C1.09659 6.76994 2.03584 8.78204 3.46763 9.95684C2.59419 9.92544 1.77178 9.62554 1.05085 9.13814V9.21934C1.05085 12.3999 2.88872 15.0556 5.33085 15.6555C4.88398 15.8055 4.41192 15.8867 3.92442 15.8867C3.57927 15.8867 3.24923 15.8429 2.91919 15.7679C3.59958 18.3736 5.56957 20.2733 7.89982 20.3295C6.0721 22.0917 3.77719 23.1415 1.2742 23.1415C0.842766 23.1415 0.42124 23.1102 -0.00012207 23.0477C2.36588 24.9161 5.16843 25.9971 8.17915 25.9971C17.9881 25.9971 23.3547 15.9928 23.3547 7.31954C23.3547 7.03214 23.3496 6.75094 23.3394 6.46974C24.3803 5.55134 25.2841 4.39534 26 3.07694Z" fill="white"/>
</g>
<defs>
<clipPath id="clip0_5267_940">
<rect width="26" height="26" fill="white"/>
</clipPath>
</defs>
</svg>
